<svg xmlns="http://www.w3.org/2000/svg" xmlns:xlink="http://www.w3.org/1999/xlink" width="375" height="812" viewBox="0 0 375 812">
  <defs>
    <style>
      .cls-1 {
        clip-path: url(#clip-ios);
      }

      .cls-2 {
        fill: #4143e0;
      }

      .cls-3 {
        fill: rgba(248,248,248,0.92);
      }

      .cls-4 {
        opacity: 0.2;
      }

      .cls-5, .cls-6 {
        fill: #007aff;
      }

      .cls-6, .cls-7 {
        fill-rule: evenodd;
      }

      .cls-7 {
        fill: rgba(0,0,0,0.15);
      }

      .cls-8 {
        fill: rgba(248,248,248,0.7);
      }

      .cls-9 {
        fill: none;
      }

      .cls-10 {
        fill: rgba(0,0,0,0.08);
      }

      .cls-11 {
        font-size: 17px;
        font-family: SegoeUI, Segoe UI;
        letter-spacing: -0.024em;
      }

      .cls-12 {
        clip-path: url(#clip-path);
      }

      .cls-13 {
        font-size: 15px;
        font-family: SegoeUI-Semibold, Segoe UI;
        font-weight: 600;
        letter-spacing: -0.011em;
      }

      .cls-14 {
        fill: rgba(0,0,0,0.36);
      }

      .cls-15 {
        fill: #f2f2f2;
      }
    </style>
    <clipPath id="clip-path">
      <path id="Icon" d="M1.5,13.363a1.5,1.5,0,0,1-1.5-1.5V6.611a1.5,1.5,0,0,1,1.5-1.5h.153V3.079A3.144,3.144,0,0,1,4.857,0a3.144,3.144,0,0,1,3.2,3.079V5.111h.153a1.5,1.5,0,0,1,1.5,1.5v5.253a1.5,1.5,0,0,1-1.5,1.5ZM6.993,5.111V3.079A2.1,2.1,0,0,0,4.857,1.026,2.1,2.1,0,0,0,2.721,3.079V5.111Z" transform="translate(0.786 4)"/>
    </clipPath>
    <clipPath id="clip-ios">
      <rect width="375" height="812"/>
    </clipPath>
  </defs>
  <g id="ios" class="cls-1">
    <rect class="cls-15" width="375" height="812"/>
    <rect id="Web_Page" data-name="Web Page" class="cls-2" width="375" height="720" transform="translate(0 94)"/>
    <g id="_iPhone_X_Tab_Bar" data-name="• iPhone X /Tab Bar" transform="translate(0 728)">
      <g id="Background" transform="translate(0 1)">
        <rect id="Background-2" data-name="Background" class="cls-3" width="375" height="85"/>
        <g id="Separator" transform="translate(0 83.3)">
          <g id="Muted" class="cls-4" transform="translate(0 1.4)">
            <path id="Separator-2" data-name="Separator" d="M0,0H375V.5H0Z" transform="translate(0 0.5)"/>
          </g>
        </g>
      </g>
      <g id="Top_Separator" data-name="Top Separator" transform="translate(0 2)">
        <g id="Muted-2" data-name="Muted" class="cls-4">
          <path id="Separator-3" data-name="Separator" d="M0,0H375V-.5H0Z" transform="translate(0 -0.5)"/>
        </g>
      </g>
      <g id="Icons" transform="translate(17 14)">
        <path id="Icon-2" data-name="Icon" class="cls-5" d="M12.5,24h0l-.052,0a.108.108,0,0,1-.027-.007l-.006,0-.021-.007a.529.529,0,0,1-.1-.031.334.334,0,0,1-.063-.035l-.007,0a.419.419,0,0,1-.078-.06.512.512,0,0,1-.054-.062.481.481,0,0,1-.051-.083.536.536,0,0,1-.032-.082A.162.162,0,0,0,12,23.605a.082.082,0,0,1-.01-.024c-.467-2.3-1.721-3.412-3.834-3.412-3.267,0-7.307,2.669-7.348,2.7a.512.512,0,0,1-.286.086.533.533,0,0,1-.248-.062A.524.524,0,0,1,0,22.428V4.081C0,1.64,3.28,0,6.344,0A7.17,7.17,0,0,1,12.5,3.065,7.176,7.176,0,0,1,18.657,0a8.687,8.687,0,0,1,4.321,1.125A3.562,3.562,0,0,1,25,4.081V22.428a.521.521,0,0,1-.521.524.518.518,0,0,1-.287-.086c-.04-.027-4.047-2.7-7.348-2.7-2.114,0-3.368,1.116-3.834,3.412A.1.1,0,0,1,13,23.6a.113.113,0,0,0-.01.022.536.536,0,0,1-.032.082.414.414,0,0,1-.051.083.552.552,0,0,1-.053.062.5.5,0,0,1-.078.06l-.011.007-.011.006a.367.367,0,0,1-.049.026.423.423,0,0,1-.094.029l-.008,0-.021.007-.007,0a.1.1,0,0,1-.025.007h-.019ZM6.345,1.049c-2.775,0-5.3,1.445-5.3,3.032V21.494c3.545-2.065,5.979-2.373,7.115-2.373a4.473,4.473,0,0,1,3.823,1.77V4.21A6.135,6.135,0,0,0,6.345,1.049Zm10.5,18.072c1.134,0,3.566.308,7.114,2.373V4.082c0-1.587-2.527-3.032-5.3-3.032a6.136,6.136,0,0,0-5.636,3.162v16.68A4.473,4.473,0,0,1,16.845,19.121Z" transform="translate(238 3)"/>
        <path id="Icon-3" data-name="Icon" class="cls-5" d="M0,27V7.645H7V8.663H1V25.981H18V8.663H12V7.645h7V27Zm9-9.678V2.036L5.973,5.158a.223.223,0,0,1-.328-.005l-.377-.41a.258.258,0,0,1-.005-.348L9.456.069a.223.223,0,0,1,.329.005l.377.409a.262.262,0,0,1,.068.144L14,4.466a.252.252,0,0,1,0,.344l-.413.4a.222.222,0,0,1-.326.005L10,1.9V17.322Z" transform="translate(161)"/>
        <path id="Icon-4" data-name="Icon" class="cls-5" d="M19.5,25H0V5.882H19.5V25h0ZM1,24.021H18.5V6.863H1Zm19.5-4.9v-.98H24V.98H6.5V4.9h-1V0H25V19.117Z" transform="translate(317 1)"/>
        <path id="Icon-5" data-name="Icon" class="cls-6" d="M2.222,14.019l7.192,7.3a.8.8,0,0,1,0,1.124.777.777,0,0,1-1.1.008l-.008-.008-7.192-7.3,0,0L0,14.018l0,0,0,0,1.107-1.124,0,0L8.333,5.564a.78.78,0,0,1,1.1-.008l.008.008a.8.8,0,0,1,0,1.127Z" transform="translate(0 -0.331)"/>
        <path id="Icon-6" data-name="Icon" class="cls-7" d="M2.222,13.849,9.413,21a.774.774,0,0,1,0,1.1.788.788,0,0,1-1.1.008L8.306,22.1,1.114,14.95l0,0L0,13.848l0,0,0,0,1.107-1.1,0,0L8.333,5.559a.791.791,0,0,1,1.1-.008l.008.008a.776.776,0,0,1,0,1.105Z" transform="translate(120.676 27.67) rotate(180)"/>
      </g>
    </g>
    <g id="_iPhone_X_Home_Indicator" data-name="• iPhone X / Home Indicator" transform="translate(120 801)">
      <rect id="Line" width="135" height="5" rx="2.5"/>
    </g>
    <g id="_iPhone_X_Navigation_Bar_Default_Copy" data-name="• iPhone X / Navigation Bar Default Copy">
      <g id="Background-3" data-name="Background">
        <rect id="Background-4" data-name="Background" class="cls-8" width="375" height="94"/>
        <g id="Separator-4" data-name="Separator" transform="translate(0 93)">
          <g id="Muted-3" data-name="Muted" class="cls-4">
            <path id="Separator-5" data-name="Separator" d="M0,0H375V.5H0Z" transform="translate(0 0.5)"/>
          </g>
        </g>
      </g>
      <g id="Input" transform="translate(0 42)">
        <g id="Background-5" data-name="Background">
          <rect id="Background-6" data-name="Background" class="cls-9" width="375" height="52"/>
        </g>
        <rect id="Search_Field" data-name="Search Field" class="cls-10" width="355" height="36" rx="10" transform="translate(10 6)"/>
        <g id="Container" transform="translate(134 13)">
          <path id="Fill_1" data-name="Fill 1" d="M12.977,10.5A5.749,5.749,0,1,1,7.15,4.255V7l6-3.4L7.15,0V2.748l-.009,0a7.25,7.25,0,1,0,7.322,7.985,2.485,2.485,0,0,0,.1-.235Z" transform="translate(208 2)"/>
          <g id="Text">
            <text id="_Text" data-name="↳ Text" class="cls-11" transform="translate(20 17)"><tspan x="0" y="0">socials.link</tspan></text>
            <path id="Icon-7" data-name="Icon" d="M1.5,13.363a1.5,1.5,0,0,1-1.5-1.5V6.611a1.5,1.5,0,0,1,1.5-1.5h.153V3.079A3.144,3.144,0,0,1,4.857,0a3.144,3.144,0,0,1,3.2,3.079V5.111h.153a1.5,1.5,0,0,1,1.5,1.5v5.253a1.5,1.5,0,0,1-1.5,1.5ZM6.993,5.111V3.079A2.1,2.1,0,0,0,4.857,1.026,2.1,2.1,0,0,0,2.721,3.079V5.111Z" transform="translate(0.786 4)"/>
          </g>
        </g>
      </g>
      <g id="Status_Bar" data-name="Status Bar" transform="translate(20 14)">
        <g id="Action">
          <text id="_Time" data-name="↳ Time" class="cls-13"><tspan x="10.012" y="16">12:00</tspan></text>
        </g>
        <g id="Container-2" data-name="Container" transform="translate(273 2)">
          <g id="Battery" transform="translate(43 0.6)">
            <path id="Rectangle" class="cls-14" d="M3.589,11.5a4.073,4.073,0,0,1-2.156-.374A2.532,2.532,0,0,1,.374,10.067,4.065,4.065,0,0,1,0,7.911V3.589A4.065,4.065,0,0,1,.374,1.433,2.532,2.532,0,0,1,1.433.374,4.065,4.065,0,0,1,3.589,0H18.41a4.066,4.066,0,0,1,2.157.374,2.532,2.532,0,0,1,1.058,1.058A4.08,4.08,0,0,1,22,3.589V7.911a4.08,4.08,0,0,1-.374,2.156,2.532,2.532,0,0,1-1.058,1.058,4.077,4.077,0,0,1-2.157.374ZM1.9,1.256a1.535,1.535,0,0,0-.649.649A3.322,3.322,0,0,0,1,3.589V7.911A3.322,3.322,0,0,0,1.256,9.6a1.523,1.523,0,0,0,.649.648,3.309,3.309,0,0,0,1.685.257H18.41a3.311,3.311,0,0,0,1.686-.257,1.546,1.546,0,0,0,.648-.648A3.322,3.322,0,0,0,21,7.911V3.589A3.322,3.322,0,0,0,20.744,1.9a1.548,1.548,0,0,0-.648-.649A3.324,3.324,0,0,0,18.41,1H3.589A3.322,3.322,0,0,0,1.9,1.256ZM23,3.69s1.5.763,1.5,2-1.5,2-1.5,2Z" transform="translate(0 0.56)"/>
            <rect id="Rectangle-2" data-name="Rectangle" width="18" height="7.667" rx="1.6" transform="translate(2 2.477)"/>
          </g>
          <path id="Combined_Shape" data-name="Combined Shape" d="M15.3,10.7a1.2,1.2,0,0,1-1.2-1.2V1.2A1.2,1.2,0,0,1,15.3,0h.6a1.2,1.2,0,0,1,1.2,1.2V9.5a1.2,1.2,0,0,1-1.2,1.2Zm-4.7,0A1.2,1.2,0,0,1,9.4,9.5V3.6a1.2,1.2,0,0,1,1.2-1.2h.6a1.2,1.2,0,0,1,1.2,1.2V9.5a1.2,1.2,0,0,1-1.2,1.2ZM6,10.7A1.2,1.2,0,0,1,4.8,9.5V5.9A1.2,1.2,0,0,1,6,4.7h.6A1.2,1.2,0,0,1,7.8,5.9V9.5a1.2,1.2,0,0,1-1.2,1.2Zm-4.8,0A1.2,1.2,0,0,1,0,9.5V7.9A1.2,1.2,0,0,1,1.2,6.7h.6A1.2,1.2,0,0,1,3,7.9V9.5a1.2,1.2,0,0,1-1.2,1.2Z" transform="translate(0.5 1.6)"/>
          <path id="Wi-Fi" d="M7.7,11.057a.315.315,0,0,1-.223-.094L5.462,8.932a.317.317,0,0,1,.01-.461,3.451,3.451,0,0,1,4.457,0,.312.312,0,0,1,.1.228.319.319,0,0,1-.095.233L7.924,10.964A.315.315,0,0,1,7.7,11.057Zm3.537-3.567a.307.307,0,0,1-.215-.086,4.945,4.945,0,0,0-6.641,0A.311.311,0,0,1,3.945,7.4L2.78,6.222a.325.325,0,0,1,0-.463,7.22,7.22,0,0,1,9.834,0,.325.325,0,0,1,0,.463L11.459,7.4A.312.312,0,0,1,11.237,7.491ZM13.92,4.783a.31.31,0,0,1-.217-.088,8.714,8.714,0,0,0-12.006,0,.311.311,0,0,1-.218.088.306.306,0,0,1-.22-.092L.094,3.515a.325.325,0,0,1,0-.46,10.989,10.989,0,0,1,15.206,0,.324.324,0,0,1,0,.46L14.14,4.691A.306.306,0,0,1,13.92,4.783Z" transform="translate(22.6 1.4)"/>
        </g>
      </g>
    </g>
  </g>
</svg>
